<svg aria-hidden="true" style="position: absolute; width: 0; height: 0; overflow: hidden;" version="1.1" xmlns="http://www.w3.org/2000/svg" xmlns:xlink="http://www.w3.org/1999/xlink">
<defs>
<symbol id="icon-Frame" viewBox="0 0 32 32">
    <path fill="none" stroke="currentColor" stroke-linejoin="round" stroke-linecap="round" stroke-miterlimit="4" stroke-width="2.2857" d="M16 11.429v6.857"></path>
    <path fill="none" stroke="currentColor" stroke-linejoin="round" stroke-linecap="round" stroke-miterlimit="4" stroke-width="2.2857" d="M16.002 26.286c0.631 0 1.143-0.512 1.143-1.143s-0.512-1.143-1.143-1.143c-0.631 0-1.143 0.512-1.143 1.143s0.512 1.143 1.143 1.143z"></path>
    <path fill="none" stroke="currentColor" stroke-linejoin="round" stroke-linecap="round" stroke-miterlimit="4" stroke-width="2.2857" d="M18.036 2.4c-0.192-0.374-0.483-0.689-0.842-0.908s-0.771-0.336-1.192-0.336c-0.421 0-0.833 0.116-1.192 0.336s-0.65 0.534-0.842 0.908l-12.571 25.143c-0.175 0.348-0.259 0.735-0.242 1.124s0.132 0.768 0.336 1.1c0.204 0.332 0.489 0.606 0.829 0.797s0.723 0.291 1.112 0.293h25.143c0.39-0.001 0.772-0.102 1.112-0.293s0.625-0.465 0.829-0.797c0.204-0.332 0.319-0.711 0.336-1.1s-0.067-0.776-0.243-1.124l-12.571-25.143z"></path>
</symbol>
<symbol id="icon-Vector" viewBox="0 0 30 32">
<path fill="#ffe550" style="fill: var(--color1, #ffe550)" d="M13.707 2.191c0.519-1.254 2.289-1.254 2.808 0l3.066 7.403c0.219 0.529 0.714 0.89 1.283 0.936l7.957 0.641c1.348 0.109 1.895 1.798 0.868 2.682l-6.063 5.216c-0.433 0.373-0.622 0.957-0.49 1.514l1.852 7.799c0.314 1.321-1.117 2.366-2.272 1.658l-6.813-4.179c-0.487-0.299-1.099-0.299-1.585 0l-6.813 4.179c-1.154 0.708-2.586-0.336-2.272-1.658l1.852-7.799c0.132-0.557-0.057-1.142-0.49-1.514l-6.063-5.216c-1.027-0.884-0.481-2.574 0.868-2.682l7.958-0.641c0.568-0.046 1.064-0.407 1.283-0.936l3.066-7.403z"></path>
</symbol>
</defs>
</svg>
